/* XPM */
static char *f7230e3a23c6431ebb1e33e90db6c953FLtjfRwoiLDxM2VE[] = {
/* columns rows colors chars-per-pixel */
"64 64 45 1 ",
"  c #5E73FF",
". c #5F74FF",
"X c #6075FF",
"o c #6178FF",
"O c #6479FF",
"+ c #637CFF",
"@ c #657CFF",
"# c #687FFF",
"$ c #6880FF",
"% c #6A84FF",
"& c #6C86FF",
"* c #6E89FF",
"= c #708AFF",
"- c #738EFF",
"; c #7593FF",
": c #7995FF",
"> c #7A9AFF",
", c #7C99FF",
"< c #7FA1FF",
"1 c #80A2FF",
"2 c #83A6FF",
"3 c #84A5FF",
"4 c #86A9FF",
"5 c #87AEFF",
"6 c #8BAEFF",
"7 c #8BB0FF",
"8 c #8CB0FF",
"9 c #8EB6FF",
"0 c #91B6FF",
"q c #92B8FF",
"w c #95B9FF",
"e c #97BFFF",
"r c #99BFFF",
"t c #97C1FF",
"y c #9BC1FF",
"u c #99C2FF",
"i c #9DC4FF",
"p c #9FCAFF",
"a c #A2CCFF",
"s c #A5CEFF",
"d c #A5CFFF",
"f c #A8D3FF",
"g c #ACD8FF",
"h c #AFDCFF",
"j c #B2E0FF",
/* pixels */
"jjjjjjjjjjjjjjjjjjjjjjjjjjjjjjjjjjjjjjjjjjjjjjjjjjjjjjjjjjjjjjjj",
"jjjjjjjjjjjjjjjjjjjjjggggguuuuiuiahjjfjfjjjjjjjjjjjjjjjjjjjjjjjj",
"jjjjjjjjjjjjjjjjjjjggfgg888uiuiahjjshajjjjjjjjjjjjjjjjjjjjjjjjjj",
"jjjjjjjjjjjjjjjjjjgsft1>;1@@@ooOO*60u;j,fjfjjjjjjjjjjjjjjjjjjjjj",
"jjjjjjjjjjjjjjjjjjgu71;1.  oOo@-pgf;p-hhgjjjjjjjjjjjjjjjjjjjjjjj",
"jjjjjjjjjjjjjjjjjju6><   o        X*= h j:jfjjjjjjjjjjjjjjjjjjjj",
"jjjjjjjjjjjjjjjjjju8o  @           @     g,jjjjjjjjjjjjjjjjjjjjj",
"jjjjjjjjjjjjjjjjjguo o                    ,jjjjjjjjjjjjjjjjjjjjj",
"jjjjjjjjjjjjjjjjjh6Xo  ........   .e     jjjjjjjjjjjjjjjjjjjjjjj",
"jjjjjjjjjjjjjjjjje7  .            6*e e.jfjjjjjjjjjjjjjjjjjjjjjj",
"jjjjjjjjjjjjjjjjjtoX             *p--O>;jjjjjjjjjjjjjjjjjjjjjjjj",
"jjjjjjjjjjjjjjjjj6        o6@XXXX. X-9j:,,,jjjjjjjjjjjjjjjjjjjjj",
"jjjjjjjjjjjjjjjjj6 .    .@#..$jjjjjhhputujjjjjjjjjjjjjjjjjjjjjjj",
"jjjjjjjjjjjjjjjjuo..  .....$jjjjjjjjjjjjjjjjjjjjjjjjjjjjjjjjjjjj",
"jjjjjjjjjjjjjjjj0     .. $jjjjjjjjjjjjjjjjjjjjjjjjjjjjjjjjjjjjjj",
"jjjjjjjjjjjjjjjj7 .   .X@$jjjjjjjjjjjjjjjjjjjjjjjjjjjjjjjjjjjjjj",
"jjjjjjjjjjjjjjjjo    .. .$jjjjjjjjfjjjjjjjjjjjjjjjjjjjjjjjjjjjjj",
"jjjjjjjjjjjjjjjj.o   .. @uuuuuuuwahjjjjjjjjjjjjjjjjjjjjjjjjjjjjj",
"jjjjjjjjjjjjjjjj .  ...X@8uuuuuusj,jffjjjjjjjjjjjjjjjjjjjjjjjjjj",
"jjjjjjjjjjjjjjji..  ...X@ooooooOX*6uahjjjjjjjjjjjjjjjjjjjjjjjjjj",
"jjjjjjjjjjjjjjjo         @o@@@@@pf.j$jffjjjjjjjjjjjjjjjjjjjjjjjj",
"jjjjjjjjjjjjjji o                   9;hjjjjjjjjjjjjjjjjjjjjjjjjj",
"jjjjjjjjjjjjjji @  .                 ;,jfjjjjjjjjjjjjjjjjjjjjjjj",
"jjjjjjjjjjjjjj@ .  .           .      j,jjjjjjjjjjjjjjjjjjjjjjjj",
"jjjjjjjjjjjjjj@.   ...........         ,jjjjjjjjjjjjjjjjjjjjjjjj",
"jjjjjjjjjjjjjj..                  $   jjjjjjjjjjjjjjjjjjjjjjjjjj",
"jjjjjjjjjjjjjj .   .             *ej ,fjjjjjjjjjjjjjjjjjjjjjjjjj",
"jjjjjjjjjjjjj$    .. o88@XXXXXXXX.  Opjjjjjjjjjjjjjjjjjjjjjjjjjj",
"jjjjjjjjjjjjj$o   .. ohjjjjjjjjjjjjjfj,,jjjjjjjjjjjjjjjjjjjjjjjj",
"jjjjjjjjjjjjj$o  ..  ojjjjjjjjjjjjjjjjjjjjjjjjjjjjjjjjjjjjjjjjjj",
"jjjjjjjjjjjjj$o  .   6jjjjjjjjjjjjjjjjfjjjjjjjjjjjjjjjjjjjjjjjjj",
"jjjjjjjjjjjjj$o  .   1iiiiijjjjjjjjjfjjjjjjjjjjjjjjjjjjjjjjjjjjj",
"jjjjjjjjjjjjj#@  .   >8uujjiiiiiiijfag>jjfjjjjjjjjjjjjjjjjjjjjjj",
"jjjjjjjjjjjjj@@  .   ooo@OO888uiggff:jjjjjjjjjjjjgjjjjjjjjjjjjjj",
"jjjjjjjjjjjjj@7  .    @@o66ooooO@@w-4u g:hfjjjjgjjgjjjjjjjjjjjjj",
"jjjjjjjjjjjjj@7  .      ...XX@@@uu9te   j,jjjjgggtjhgjjjjjjjjjjj",
"jjjjjjjjjjjjj@6@ .             ...@@   . :hjjjjughuhjgjjjjjjjjjj",
"jjjjjjjjjjjjj@goo.                 @@   tpjjjjujueitgghjjjjjjjjj",
"jjjjjjjjjjjjuu# @o   .               e e5pjjjjju6ee0ejfjjjjjjjjj",
"jjjjjjjjjjjjjute .    .......         *-jjjjjjj666@e66jfjjjjjjjj",
"jjjjjjjjjjjjjjjuee@X         .....     :>,jjjjgj@66@6t9gjjjjjjjj",
"jjjjjjjjjjjjjjjjjgue66o          oe   ijjjjjjuj#j@.eX66ifjjjjjjj",
"jjjjjjjjjjjjjjjjjjjjggueeee66o       gqetpjjjjuu@...@Xe1hgjjjjjj",
"jjjjjjjjjjjjjjjjjjjjjjjjjggueeeeet--*eeujjjjjjjp ... X.68fjjjjjj",
"jjjjjjjjjjjjjjjjjjjjjjjjjjjjjjjjjjjjfj,,jjjjjjj0j ... X@1jfjjjjj",
"jjjjjjjjjjjjjjjjjjjjjjjjjjjjjjjjjjjjjjjjjjjjjj$j7@...  .<1fgjjjj",
"jjjjjjjjjjjjjjjjjjjjjjjjjjjjjjjjjjjjjjjjjjjjjgg#@@ ... .@<jfjjjj",
"jjjjjjjjjjjjjjjjjjjjjjjjjjjjjjjjjjjjjghghhgeruui@O  ... .61fgjjj",
"jjjjjguisusuiiiusiiuiiisuisuiuiiauseuuiiu86ee877o3o .... @<8fjjj",
"jjjguisusuiiiusiiuiiisuisuiuiiausurrr797221@@@oo  X  ...  e1fgjj",
"jjge64@@*o%@o@oo%oo@ooo&oo&ooOoo%o%+o@ooo..ooo@@@ X... .  X6ifgj",
"jjju@@;@;@@@@@;@@@@@@;@@;@@@@@-@;@@@@@@@ @@        . ..   .@6ffj",
"jju@@-                                              ..    ..eegg",
"jjjje                                              ...   . @eeug",
"jjje                                    ............    .  5eeej",
"jjgu6..................................           ..   .. .eeeuj",
"ju@@;@                                              X    . @egjj",
"jjju@                                     o86@XXX        X@@eujj",
"jjjjjgu8@XXXXXXX.XXXXXX.XXXXXXXX.XXXXXXXXXX..$jhfht      @@tueuj",
"jjjjjjjjjjjjjjjjjjjjjjjjjjjjjjjjjjjjjjjjjjjjjjhfft      o@@gueuj",
"jjjjjjjjjjjjjjjjjjjjjjjjjjjjjjjjjjjjjjjjjjjjjjjpe$i    <e#$ppjjj",
"jjjjjjjjjjjjjjjjjjjjjjjjjjjjjjjjjjjjjjjjjjjjjjpt,@e@  27@$uujjjj",
"jjjjjjjjjjjjjjjjjjjjjjjjjjjjjjjjjjjjjjjjjjjjjjjjee-X.Xt@$ppjjjjj",
"jjjjjjjjjjjjjjjjjjjjjjjjjjjjjjjjjjjjjjjjjjjjjjjeeeee96:X@pjjjjjj"
};
