/* XPM */
static char *_0ee425986434267f2148ab6f2d16645N7gbCxdMERkKABLc[] = {
/* columns rows colors chars-per-pixel */
"64 64 47 1 ",
"  c #5E72FF",
". c #5E75FF",
"X c #6075FF",
"o c #6379FF",
"O c #647AFF",
"+ c #657CFF",
"@ c #687FFF",
"# c #6780FF",
"$ c #6880FF",
"% c #6B86FF",
"& c #6D87FF",
"* c #6F89FF",
"= c #738EFF",
"- c #748FFF",
"; c #7491FF",
": c #7A96FF",
"> c #7798FF",
", c #7898FF",
"< c #7C99FF",
"1 c #7FA1FF",
"2 c #80A2FF",
"3 c #83A7FF",
"4 c #85A7FF",
"5 c #86A9FF",
"6 c #89AAFF",
"7 c #88AEFF",
"8 c #8BB0FF",
"9 c #8CB0FF",
"0 c #8DB5FF",
"q c #90B6FF",
"w c #93B8FF",
"e c #94BBFF",
"r c #94BFFF",
"t c #99BFFF",
"y c #97C1FF",
"u c #99C2FF",
"i c #9CC3FF",
"p c #9BC5FF",
"a c #9FC7FF",
"s c #9FCAFF",
"d c #A2CCFF",
"f c #A5CEFF",
"g c #A8D3FF",
"h c #AAD5FF",
"j c #ACD8FF",
"k c #AFDCFF",
"l c #B2E0FF",
/* pixels */
"llllllllllllllllllllllllllllllllllllllllllllllllllllllllllllllll",
"llllllllllllllllllllllllllllllllllllllllllllllllllllllllllllllll",
"llllllllllllllllllllllllllllllllllllllllllllllllllllllllllllllll",
"llllllllllllllllllllllllllllllllllllllllllllllllllllllllllllllll",
"llllllllllllllllllllllllllllllllllllllllllllllllllllllllllllllll",
"llllllllllllllllllllllllllllllllllllllllllllllllllllllllllllllll",
"llllllllllllllllllllllllllllllllllllllllllllllllllllllllllllllll",
"llllllllllllllllllllllllllllllllllllllllllllllllllllllllllllllll",
"llllllllllllllllllllllllllllllllllllllllllllllllllllllllllllllll",
"llllllllllllllllllllllllllllllllllllllllllllllllllllllllllllllll",
"lllllllllllllllllllllllllllllllllllkllllllllllllllllllllllllllll",
"lllllllllllllllllllllllllllllllllkljllllllllllllllllllllllllllll",
"llllllllllllllllllllllllllllllllkhlsllklllllllllllllllllllllllll",
"lllllllllllllllllllllllllllllllljpaylljlllllllllllllllllllllllll",
"llllllllllllllllljjlllllllllllll0yqrlsjkllllllllllllllllllllllll",
"llllllllllllllljjjjjllllllllllla,7+rr8sjllllllllllllllllllllllll",
"lllllllllllllljfgyulgjlllllllll4o7Xrr1rjllllllllllllllllllllllll",
"lllllllllllllljyu89uggjlllllllaoXo ro77jllllllllllllllllllllllll",
"lllllllllllllly787r9rggjlllllla.+ .  +1jllllllllllllllllllllllll",
"llllllllllllll8,7o+737gfjlllll+..     7jllllllllllllllllllllllll",
"llllllllllllll8o+o0+777jfjllll+..  . .7jllllllllllllllllllllllll",
"llllllllllllllo 7..XX7>0ggjlll.. . . X0jllllllllllllllllllllllll",
"llllllllllllluoo  ..o r11ggjll  ..   X1jllllllllllllllllllllllll",
"llllllllllllluo    ..X.702ugl@  .. .  7jllllllllllllllllllllllll",
"llllllllllllluo.    ..X.+727g+.  .    0allllllllllllllllllllllll",
"lllllllllllll+  .     .%X+ou7.X... .  +gllllllllllllllllllllllll",
"lllllllllllll+o .      ..XXor    ..   Xgllllllllllllllllllllllll",
"lllllllllllll+o   .      ..XX   ...   +allllllllllllllllllllllll",
"lllllllllllll+o    .      ..X  .. .  .Xgllllllllllllllllllllllll",
"lllllllllllll+o  .  ..     . . .. .  .Xallllllllllllllllllllllll",
"lllllllllllll+o  .   oo.     . .. .  ..lllllllllllllllllllllllll",
"lllllllllllll+O  .   . ..      .. .  .Xlllllllllllllllllllllllll",
"lllllllllllll+O  .   a+...   . ....  .;lllllllllllllllllllllllll",
"lllllllllllll++  .   wlu ... . ...   .+lllllllllllllllllllllllll",
"lllllllllllll++  .   9luu+ o ....   ..;lllllllllllllllllllllllll",
"lllllllllllll+0  .   fgluu+  ..   ... +llllllllllljlllllllllllll",
"lllllllllllll+8  .   -aluuu+         .rllllllllljlglllllllllllll",
"lllllllllllll+0X .   Xglluu+        ..glllllllljflugljllllllllll",
"lllllllllllll+y  .   Xallluu +        fjlllllllgyg7rlgllllllllll",
"llllllllllllls;o .   Xllllul         +yjlllllllu7wr0ulflllllllll",
"lllllllllllllu+0 .   @lllllu++     X++rglllllll773++79wlllllllll",
"llllllllllllls:7+   *<lllll=+++  ..X++rjllllllll++7=7rgfllllllll",
"lllllllllllllu$r==.ro$llllllu=X  X+  +rllllllll@+*.  +75jlllllll",
"lllllllllllllsju++os;<lllllllur07&X +rulllllllug<... X+rdlllllll",
"lllllllllllllulssray+$llllllllurrrrrrrulllllllrl  ...  07fklllll",
"llllllllllllllluuulsslllllllllluurrrrrullllllll77  ... +1eljllll",
"llllllllllllllllljluulllllllllllluyyurrlllllll$+dr   .. 73ijllll",
"llllllllllllllllllllllllllllllllllljluuljjjkjgh:+X   ..+ 77rglll",
"llllllllllllllllljjjjudufdadjjjjkjjjjkgruauutrr9o%#  ... .u5rlll",
"llllllllllllllljjjjudufdadjjudfududau7qr88908778o1oo  ... Xr6fjl",
"lllllllllllllljggu955+*+&*O*8288e888531+++ooooooo  .  ... X 2ejl",
"llllllllllllllluuuu+=+;=+*58+**o&+$+O XooO+++++++    ...   .+7jg",
"lllllllllllllluuur+=+       XX&O=+++X++              X.    . 7ug",
"llllllllllllllllrrrr                               ..XX   . Xrru",
"lllllllllllllllrrrr                              . ...   .  +rrr",
"lllllllllllllljjrr70.....           ............   ...  .. .rrrr",
"llllllllllllluuuu+=+=    ..........               ..    . . +rrr",
"lllllllllllllllurrr+X      .                      ..X   ..o++rrj",
"llllllllllllllllljjur7q+XX            *77+XXXXXXXX       X7++ryj",
"llllllllllllllllllllllllllllag$X$XXXXXX.X<llllllj;+      o++rrur",
"llllllllllllllllllllllllllllllllllllllllllllllllsr+      r++shur",
"llllllllllllllllllllllllllllllllllllllllllllllllu$      o++ajuul",
"lllllllllllllllllllllllllllllllllllllllllllllllll+7    7++ujlssl",
"llllllllllllllllllllllllllllllllllllllllllllllll,+r+  3+ +jluull"
};
