/* XPM */
static char *_dd89cf61cfc46e1a3cdc2bca6650221jEjETbcdspRXBSoL[] = {
/* columns rows colors chars-per-pixel */
"64 64 43 1 ",
"  c #5E73FF",
". c #5E74FF",
"X c #6077FF",
"o c #6379FF",
"O c #647BFF",
"+ c #657CFF",
"@ c #687FFF",
"# c #6880FF",
"$ c #6D87FF",
"% c #6E88FF",
"& c #708BFF",
"* c #728EFF",
"= c #7593FF",
"- c #7997FF",
"; c #7798FF",
": c #7A9AFF",
"> c #7FA2FF",
", c #80A2FF",
"< c #82A4FF",
"1 c #85A7FF",
"2 c #87A9FF",
"3 c #89AAFF",
"4 c #89AEFF",
"5 c #8BB0FF",
"6 c #8CB0FF",
"7 c #8FB5FF",
"8 c #90B5FF",
"9 c #95B9FF",
"0 c #94BFFF",
"q c #99BFFF",
"w c #97C1FF",
"e c #99C2FF",
"r c #9FC7FF",
"t c #9FCAFF",
"y c #A1C9FF",
"u c #A2CCFF",
"i c #A5CEFF",
"p c #A6D0FF",
"a c #A8D3FF",
"s c #AAD5FF",
"d c #ACD8FF",
"f c #AFDCFF",
"g c #B2E0FF",
/* pixels */
"gggggggggggggggggggggggggggggggggggggggggggggggggggggggggggggggg",
"gggggggggggggggggggggggggggggggggggggggggggggggggggggggggggggggg",
"gggggggggggggggggggggggggggggggggggggggggggggggggggggggggggggggg",
"gggggggggggggggggggggggggggggggggggggggggggggggggggggggggggggggg",
"gggggggggggggggggggggggggggggggggggggggggggggggggggggggggggggggg",
"gggggggggggggggggggggggggggggggggggggggggggggggggggggggggggggggg",
"gggggggggggggggggddddggggggggggggggggggggggggggggggggggggggggggg",
"gggggggggggggggaaddggddfddddrerrarargggggggggggggggggggggggggggg",
"gggggggggggggdiiawww5q00ee66rrieirdggggggggggggggggggggggggggggg",
"ggggggggggggaia00e,3q5465,,,ooO+$+=+eurggggggggggggggggggggggggg",
"gggggggggggdie04,;>>ooooooXX++&+=+wsfdgggggggggggggggggggggggggg",
"gggggggggggd04,;>4  +++++ ++    ....*+iedggggggggggggggggggggggg",
"ggggggggggge,1;o  ++.   ........     :@ggggggggggggggggggggggggg",
"ggggggggggg6:+X +4.   ..              +eddgggggggggggggggggggggg",
"ggggggggggg6X X  . ...               00eeggggggggggggggggggggggg",
"ggggggggggg+X0.  ...          ......7400eggggggggggggggggggggggg",
"gggggggggge++ .  ..   ........    Xo000ggggggggggggggggggggggggg",
"gggggggggge+.  . .. ..     o44o   XXXX@dgggggggggggggggggggggggg",
"ggggggggggeX.. ....Orr+.......#dt00000gggggggggggggggggggggggggg",
"gggggggggg+.... ..,r#.#ggggggggggggfdtw0eggggggggggggggggggggggg",
"gggggggggg+o....  oo#ggggggggggggggggggggggggggggggggggggggggggg",
"gggggggggg+e .....@38rrggggggggggggggggggggggggggggggggggggggggg",
"gggggggggg+e   ....O3e6errrrgggggggggggggggggggggggggggggggggggg",
"gggggggggg+e+    ..XOO+866ddeeerrggggggggggggggggggggggggggggggg",
"gggggggggg+g+      ..+oo+OOO688ddrrggggggggggggggggggggggggggggg",
"ggggggggggg+++         ..o:,+++OO0r6rggggggggggggggggggggggggggg",
"ggggggggggg+++o             ..O:6++d68gggggggggggggggggggggggggg",
"gggggggggggg+  ..               .ooo+s4rgggggggggggggggggggggggg",
"ggggggggggggge   ...             ..XX+r4rggggggggggggggggggggggg",
"gggggggggggggge0.  ......          ..X 4ergggggggggggggggggggggg",
"ggggggggggggggge00       .....      ..  4reggggggggggggggggggggg",
"ggggggggggggggggge00o         ..    ... Xa6ggggggggggggggggggggg",
"gggggggggggggggggggdde44+X      o.   .. X d4gggggggggggggggggggg",
"ggggggggggggggggggggggggdde044+  ..  ..  X+6dggggggggggggggggggg",
"gggggggggggggggggggggggggggggggw+  . ... . redgggggggdgggggggggg",
"ggggggggggggggggfugggggggggggggggw  . .. . +8agggggdgddggggggggg",
"ggggggggggggggfugergggggggggggggggg+o .. .  >fdgggdadedgdggggggg",
"gggggggggggggfy88*rrugggggggggggggg+g+....  46dgggdeaeefddgggggg",
"gggggggggggggg7#8o@r68gggggggggggggg++...   +4fgggeee0eedagggggg",
"gggggggggggggt*oo OXp28rrrrggggggggg#=o.   .X4dgggee00040asggggg",
"gggggggggggggg++     O<66grrrrrrrrr8+-.   .. 4ggggg004044eaagggg",
"gggggggggggggg0       oooO+666eerr4>4   ... X6ggggd04>4+04rsaggg",
"gggggggggggggfu        Xo<oooooooooX..>..  .Xegggedd4+4++6>5addg",
"ggggggggggggt*e4   .     ..XX+++++  +    ... egggeee+++.4 7>6add",
"ggggggggggggg++%$  ..         ............  +tggggee++...X >;6aa",
"ggggggggggggge# ..   .                    o++egggggte  .... 4;4a",
"gggggggggggggge+ ..   ..                 oe++ggggggg5   .... >>6",
"ggggggggggggggge0 ..   ......          .o,@ +gggggg#r5   ... .4>",
"ggggggggggggggggg00+X       ...........o4@ +egggggg###+   .. . 4",
"gggggggggggggggggggew44o             Xr+  +edddddeeee X.  ....  ",
"ggggrggggggggggggggggdf00044o      ...  +adddee666eee+Ooo ...   ",
"ggrgdererrrrereereeee00ee0q5454444454469066,,5,:,+++oo  .....  .",
"gree+er6rrereereeeee0006665555756656555444,,,++...ooo+X.....   .",
"gd+4,+++ooooooooooooooooooooooooooooooooooo  o  +        ..    .",
"g#e+ + +O+++++++++++++++++++++++++++++++++ ++           ...   . ",
"ge+                                                   ....   .  ",
"gg                                            ....... ...   .. .",
"gr0                                       ...         ..   .. ..",
"#de4.....................................            ..    . .o#",
"e+                                               o4+X.   .. .X+ ",
"gge+                                        orr+XX .+ *  .  .+++",
"ggggde6+XXXXXXXXXXXXXXXXXXXXXXXXXXXXXXXXXXXXX..#tt0w.0     .oe++",
"gggggggggggggggggggggggggggggggggggggggggggggggtte0*0+     o5++g",
"ggggggggggggggggggggggggggggggggggggggggggggggggg000+      5++gg"
};
