/* XPM */
static char *a585e4936a7544cdee3f2b67586710f1OQWfRbYXWIhsfXYz[] = {
/* columns rows colors chars-per-pixel */
"64 64 49 1 ",
"  c #5E72FF",
". c #5F74FF",
"X c #6075FF",
"o c #6379FF",
"O c #647AFF",
"+ c #677FFF",
"@ c #687FFF",
"# c #6880FF",
"$ c #6B85FF",
"% c #6C85FF",
"& c #6E89FF",
"* c #708CFF",
"= c #7591FF",
"- c #7893FF",
"; c #7A96FF",
": c #7798FF",
"> c #7A9AFF",
", c #7C99FF",
"< c #7E9EFF",
"1 c #7FA2FF",
"2 c #80A2FF",
"3 c #83A7FF",
"4 c #85A7FF",
"5 c #83A8FF",
"6 c #85A8FF",
"7 c #88ADFF",
"8 c #8AAFFF",
"9 c #8AB0FF",
"0 c #8CB0FF",
"q c #8FB5FF",
"w c #91B6FF",
"e c #91B8FF",
"r c #95BBFF",
"t c #94BEFF",
"y c #99BFFF",
"u c #97C1FF",
"i c #99C2FF",
"p c #9BC5FF",
"a c #9FC7FF",
"s c #9DC8FF",
"d c #A1C9FF",
"f c #A2CCFF",
"g c #A5CEFF",
"h c #A6D0FF",
"j c #A8D3FF",
"k c #AAD5FF",
"l c #ACD8FF",
"z c #AFDCFF",
"x c #B2E0FF",
/* pixels */
"xxxxxxxxxxxxxxxxxxxxxxxxxxxxxxxxxxxxxxxxxxxxxxxxxxxxxxxxxxxxxxxx",
"xxxxxxxxxxxxxxxxxxxxxxxxxxxxxxxxxxxxxxxxxxxxxxxxxxxxxxxxxxxxxxxx",
"xxxxxxxxxxxxxxxxxxxxxxxxxxxxxxxxxxxxxxxxxxxxxxxxxxxxxxxxxxxxxxxx",
"xxxxxxxxxxxxxxxxxxxxxxxxxxxxxxxxxxxxxxxxxxxxxxxxxxxxxxxxxxxxxxxx",
"xxxxxxxxxxxxxxxxxxxxxxxxxxxxxxxxxxxxxxxxxxxxxxxxxxxxxxxxxxxxxxxx",
"xxxxxxxxxxxxxxxxxxxxxxxxxxxxxxxxxxxxxxxxxxxxxxxxxxxxxxxxxxxxxxxx",
"xxxxxxxxxxxxxxxxxxxxxxxxxxxxxxxxxxxxxxxxxxxxxxxxxxxxxxxxxxxxxxxx",
"xxxlxxxxxxxxxxxxxxxxxxxxxxxxxxxxxxxxxxxxxxxxxxxxxxxxxxxxxxxxxxxx",
"xlxlxxxxxxxxxxxxxxxxxxxxxxxxxxxxxxxxxxxxxxxxxxxxxxxxxzxxxxxxxxxx",
"ljxixxlxxxxxxxxxxxxxxxxxxxxxxxxxxxxxxxxxxxxxxxxxxxxzllxxxxxxxxxx",
"lixilxlxxxxxxxxxxxxxxxxxxxxxxxxxxxxxxxxxxxxxxxxxxxkklsxxzxxxxxxx",
"iil7zizlxxxxxxxxxxxxxxxxxxxxxxxxxxxxxxxxxxxxxxxxxfgpiixllxxxxxxx",
"iqt7tiijxxxxxxxxxxxxxxxxxxxxxxxxxxxxxxxxxxxxxxxjattiitxsxzxxxxxx",
"w1t+tt7lxxxxxxxxxxxxxxxxllxxxxxxxxxxxxxxxxxxxxt7t*tiqttislxxxxxx",
"i+t+7t7llxxxxxxxxxxxxxllllxxxxxxxxxxxxxxxxxxxw4%++i77ttttxxxxxxx",
"++7 t+e0zxxxxxxxxxxxxlgguilllxxxxxxxxxxxxxxxa4..+ 7&tqttixxxxxxx",
"#&.. ++2kxxxxxxxxxxxxt997izllxxxxxxxxxxxxxxxw .+   +&7tixxxxxxxx",
", ..  .qixxxxxxxxxxa097tt7tuljxxxxxxxxxxxxxwo +     Xtulxxxxxxxx",
"9 . . .ttlxxxxxxxxw40+++o712ukxxxxxxxxxxxxa4  .     +tlssxxxxxxx",
"w   . + swxxxxxxxwa+ ++17+t77llxxxxxxxxxxxw . .    otiitixxxxxxx",
"e# ..  X+rzxxxxxaw..+  ..o o29yxxxxxxxxxxwo..     X7ixiixxxxxxxx",
"s@+.. .  waxxxxxw.a@    ..+ 72ilxxxxxxxxw< .      +*;iixxxxxxxxx",
"#=* . . X*ixxxxaO+#      ... +a7xxxxxxxw<.. .   .++.+ixxxxxxxxxx",
"x+#X.  . Xakxxxw.a....   ...  +wtxxxxxww       .oo +tixxxxxxxxxx",
"x,sX.. . XekxxaO+     .   ... .i7xxxxaw. +     .7++tixxxxxxxxxxx",
"xx*X.. . X1zzxw.+      .o  ..  Xa7xxxw ++     .++ +ixxxxxxxxxxxx",
"xx++.. ..X2sla+..    Xo .  ... .+7xxwo++ .   .++.+ixxxxxxxxxxxxx",
"xx#e... . 77ka.O    .o+ +X  .. ..x7w< @      o7+@iixxxxxxxxxxxxx",
"xx,w... . +2d+X.   .X++t++o ... X+>4 .      o7+#ssxxxxxxxxxxxxxx",
"xx#aX.. .  1ioO    .oO+t+++o... ..,  .     .1+ +tixxxxxxxxxxxxxx",
"xx#x...  . 2#..   .XOOtuu+#X .. .o  ..    .7+ +ixxxxxxxxxxxxxxxx",
"xxx#+... . +X     .$++tlii++ ....  o     .++ @iixxxxxxxxxxxxxxxx",
"xxx#9 .. ..X .   .Xo+tiiti+x+....   .   .+++iiixxxxxxxxxxxxxxxxx",
"xxx#a.... . .    .X++axiixx++           o7++xiuxxxxxxxxxxxxxxxxx",
"xxx##+..... :   .. +uliixxx+i.         .7++liuxxxxxxlxxxxxxxxxxx",
"xxxx#+ ...  .   .X**assxxxx+++        .++ @iixxxxxlxazxxxxxxxxxx",
"xxxx#9. ..       X*uziixxxxx++   .   .++ +xiixxxxliziailxxxxxxxx",
"xxxx#i@    .   .Xo+ussxxxxxx+9+     .1o +xiixxxxxa0a+saizxxxxxxx",
"xxxxx#+        .X++tixxxxxxx#+      o7++liixxxxxxi@41@+ayixxxxxx",
"xxxxx#a+  .   .. +ussxxxxxxxxi+    .7+ +ssxxxxxxx#s+.7.twylxxxxx",
"xxxxx##++ .   .+++tsxxxxxxxxxxii77+X  +itixxxxxxxx+ ... +00zxxxx",
"xxxxxx#.     .7o+ttixxxxxxxxxxittutttiliixxxxxxxxl   ... +0ilxxx",
"xxxxxxx#..   .7++lssxxxxxxxxxxxiittttiiixxxxxxxxiaz   ... 70yxxx",
"xxxxxxxxx#. .X  +ssxxxxxxxxxxxxxxiuuittixxxxxxxx#s90  ...X 70txx",
"xxxxxxxxxxxa9+ +ttixxxxxxxxxxxxxxxxlxiixxxxxxxxxx# OX  ... .00ix",
"xxxxxxxxxxxxxxllitixxxxxxxxxxxxxxxxxxxxxxxajafif00+oX   ... Xa7l",
"xxxxxxxxxxxxxxxxxxxxxxxxxxxxxxxxxxxxlzli0eiatfi000+...  ... . w7",
"xxxxxxxxxxxxxxxxxxxxxxxxxxxxxxxxlljyf0e0ee+*+$+%..Oo  .  .. . +7",
"xxxxxxxxxxxxxxxxxxxxxxxxxxlzllkjltwy632+ Xo&o*+ ++    .  ...   2",
"xxxxxxxxxxxxxxxxxxxxzlzlkklfataa>23+* X.&O             . ...   +",
"xxxxlllzzzlzzlzzzllkgiaadw6qee739+X+Xo+              .  ...   . ",
"xxlllzaaiggfggafgiywqet9752&++%% OO            ..... .  X..   . ",
"xljj900tttetqetqt961&++$&XXO%&+Xtt     .......         ..X   . X",
"xxi926+++%%$%&+%&OOXo&&++++         ..                 ..+   . +",
"xiii+++*****+**+*+++            ...              o77+XXX.     .+",
"xxx+++                                   o7q+XXXXXX.+6>X.  .. X+",
"xxttt                   ......       X&77+  +ttixxjga$X   .. X++",
"xllt             ......           X4q+XXX,xxxxxxxxh-iX +    .o+#",
"iiiw7...........              . .&9x##xxxxxxxxxxlj=s* +     X++x",
"xx+++*                 ...&q9=XXX#XX,xxxxxxxxxxlhhtt        +++x",
"xxxx@.   ..... .. O&q9*XXX#XX,xxxxxxxxxxxxxxxxxzitt        +++xx",
"xxxxxxaa@XXX##@#XX#XX#,xxxxxxxxxxxxxxxxxxxxxxxxiuuqt      w9+#xx",
"xxxxxxxxxxxxxxxxxxxxxxxxxxxxxxxxxxxxxxxxxxxxxxxsx*t*+ +. ow+#xxx",
"xxxxxxxxxxxxxxxxxxxxxxxxxxxxxxxxxxxxxxxxxxxxxxxxttt**OXXo9+.#xxx"
};
